<svg width="1440" height="660" viewBox="0 0 1440 660" fill="none" xmlns="http://www.w3.org/2000/svg">
<g clip-path="url(#clip0_340_1736)">
<rect width="1440" height="660" fill="url(#paint0_linear_340_1736)"/>
<path d="M755.37 372.632L1254.66 744.003L1299.56 778.245C1367.68 830.197 1298.82 885.407 1230.53 833.674L746.352 466.883C727.854 452.87 702.567 451.927 683.076 464.522L-84 960.215L-66.1795 919.111C-39.0937 856.636 5.8788 803.576 63.0706 766.618L676.761 370.044C700.937 354.421 732.274 355.453 755.37 372.632Z" fill="url(#paint1_linear_340_1736)"/>
<path d="M755.37 266.221L1254.66 -105.149L1299.56 -139.392C1367.68 -191.343 1298.82 -246.553 1230.53 -194.821L746.352 171.97C727.854 185.983 702.567 186.927 683.076 174.332L-84 -321.362L-66.1795 -280.258C-39.0937 -217.783 5.8788 -164.723 63.0706 -127.765L676.761 268.809C700.937 284.432 732.274 283.4 755.37 266.221Z" fill="url(#paint2_linear_340_1736)"/>
<path d="M352.741 216V181.091H365.832C368.513 181.091 370.763 181.591 372.582 182.591C374.411 183.591 375.792 184.966 376.724 186.716C377.667 188.455 378.138 190.432 378.138 192.648C378.138 194.886 377.667 196.875 376.724 198.614C375.78 200.352 374.388 201.722 372.548 202.722C370.707 203.71 368.44 204.205 365.746 204.205H357.07V199.006H364.894C366.462 199.006 367.746 198.733 368.746 198.188C369.746 197.642 370.485 196.892 370.962 195.938C371.451 194.983 371.695 193.886 371.695 192.648C371.695 191.409 371.451 190.318 370.962 189.375C370.485 188.432 369.741 187.699 368.729 187.176C367.729 186.642 366.44 186.375 364.86 186.375H359.065V216H352.741ZM382.399 216V189.818H388.382V194.182H388.654C389.132 192.67 389.95 191.506 391.109 190.688C392.279 189.858 393.614 189.443 395.114 189.443C395.455 189.443 395.836 189.46 396.257 189.494C396.688 189.517 397.046 189.557 397.33 189.614V195.29C397.069 195.199 396.654 195.119 396.086 195.051C395.529 194.972 394.989 194.932 394.467 194.932C393.342 194.932 392.33 195.176 391.433 195.665C390.546 196.142 389.847 196.807 389.336 197.659C388.825 198.511 388.569 199.494 388.569 200.608V216H382.399ZM410.983 216.511C408.358 216.511 406.091 215.966 404.181 214.875C402.284 213.773 400.824 212.216 399.801 210.205C398.778 208.182 398.267 205.801 398.267 203.062C398.267 200.369 398.778 198.006 399.801 195.972C400.835 193.926 402.278 192.335 404.13 191.199C405.983 190.051 408.159 189.477 410.659 189.477C412.272 189.477 413.795 189.739 415.227 190.261C416.67 190.773 417.943 191.568 419.045 192.648C420.159 193.727 421.034 195.102 421.67 196.773C422.306 198.432 422.625 200.409 422.625 202.705V204.597H401.164V200.438H416.71C416.699 199.256 416.443 198.205 415.943 197.284C415.443 196.352 414.744 195.619 413.846 195.085C412.96 194.551 411.926 194.284 410.744 194.284C409.483 194.284 408.375 194.591 407.42 195.205C406.466 195.807 405.721 196.602 405.187 197.591C404.664 198.568 404.397 199.642 404.386 200.812V204.443C404.386 205.966 404.664 207.273 405.221 208.364C405.778 209.443 406.556 210.273 407.556 210.852C408.556 211.42 409.727 211.705 411.068 211.705C411.966 211.705 412.778 211.58 413.505 211.33C414.233 211.068 414.863 210.688 415.397 210.188C415.931 209.688 416.335 209.068 416.608 208.33L422.369 208.977C422.005 210.5 421.312 211.83 420.289 212.966C419.278 214.091 417.983 214.966 416.403 215.591C414.824 216.205 413.017 216.511 410.983 216.511ZM426.885 216V189.818H432.783V194.267H433.089C433.635 192.767 434.538 191.597 435.8 190.756C437.061 189.903 438.567 189.477 440.317 189.477C442.089 189.477 443.584 189.909 444.8 190.773C446.027 191.625 446.891 192.79 447.391 194.267H447.663C448.243 192.812 449.22 191.653 450.595 190.79C451.981 189.915 453.623 189.477 455.521 189.477C457.93 189.477 459.896 190.239 461.419 191.761C462.942 193.284 463.703 195.506 463.703 198.426V216H457.516V199.381C457.516 197.756 457.084 196.568 456.22 195.818C455.356 195.057 454.3 194.676 453.05 194.676C451.561 194.676 450.396 195.142 449.555 196.074C448.726 196.994 448.311 198.193 448.311 199.67V216H442.26V199.125C442.26 197.773 441.851 196.693 441.033 195.886C440.226 195.08 439.169 194.676 437.862 194.676C436.976 194.676 436.169 194.903 435.442 195.358C434.714 195.801 434.135 196.432 433.703 197.25C433.271 198.057 433.055 199 433.055 200.08V216H426.885ZM469.003 216V189.818H475.173V216H469.003ZM472.105 186.102C471.128 186.102 470.287 185.778 469.583 185.131C468.878 184.472 468.526 183.682 468.526 182.761C468.526 181.83 468.878 181.04 469.583 180.392C470.287 179.733 471.128 179.403 472.105 179.403C473.094 179.403 473.935 179.733 474.628 180.392C475.333 181.04 475.685 181.83 475.685 182.761C475.685 183.682 475.333 184.472 474.628 185.131C473.935 185.778 473.094 186.102 472.105 186.102ZM492.15 216.511C489.525 216.511 487.257 215.966 485.348 214.875C483.451 213.773 481.99 212.216 480.968 210.205C479.945 208.182 479.434 205.801 479.434 203.062C479.434 200.369 479.945 198.006 480.968 195.972C482.002 193.926 483.445 192.335 485.297 191.199C487.15 190.051 489.326 189.477 491.826 189.477C493.439 189.477 494.962 189.739 496.394 190.261C497.837 190.773 499.11 191.568 500.212 192.648C501.326 193.727 502.201 195.102 502.837 196.773C503.473 198.432 503.792 200.409 503.792 202.705V204.597H482.331V200.438H497.877C497.865 199.256 497.61 198.205 497.11 197.284C496.61 196.352 495.911 195.619 495.013 195.085C494.127 194.551 493.093 194.284 491.911 194.284C490.65 194.284 489.542 194.591 488.587 195.205C487.632 195.807 486.888 196.602 486.354 197.591C485.831 198.568 485.564 199.642 485.553 200.812V204.443C485.553 205.966 485.831 207.273 486.388 208.364C486.945 209.443 487.723 210.273 488.723 210.852C489.723 211.42 490.894 211.705 492.235 211.705C493.132 211.705 493.945 211.58 494.672 211.33C495.4 211.068 496.03 210.688 496.564 210.188C497.098 209.688 497.502 209.068 497.775 208.33L503.536 208.977C503.172 210.5 502.479 211.83 501.456 212.966C500.445 214.091 499.15 214.966 497.57 215.591C495.99 216.205 494.184 216.511 492.15 216.511ZM508.052 216V189.818H514.035V194.182H514.307C514.785 192.67 515.603 191.506 516.762 190.688C517.932 189.858 519.268 189.443 520.768 189.443C521.109 189.443 521.489 189.46 521.91 189.494C522.341 189.517 522.699 189.557 522.984 189.614V195.29C522.722 195.199 522.307 195.119 521.739 195.051C521.182 194.972 520.643 194.932 520.12 194.932C518.995 194.932 517.984 195.176 517.086 195.665C516.199 196.142 515.501 196.807 514.989 197.659C514.478 198.511 514.222 199.494 514.222 200.608V216H508.052ZM537.342 216V181.091H550.706C553.228 181.091 555.325 181.489 556.995 182.284C558.677 183.068 559.933 184.142 560.762 185.506C561.603 186.869 562.024 188.415 562.024 190.142C562.024 191.562 561.751 192.778 561.206 193.79C560.66 194.79 559.927 195.602 559.007 196.227C558.086 196.852 557.058 197.301 555.921 197.574V197.915C557.16 197.983 558.348 198.364 559.484 199.057C560.632 199.739 561.569 200.705 562.296 201.955C563.024 203.205 563.387 204.716 563.387 206.489C563.387 208.295 562.95 209.92 562.075 211.364C561.2 212.795 559.882 213.926 558.12 214.756C556.359 215.585 554.143 216 551.473 216H537.342ZM543.666 210.716H550.467C552.762 210.716 554.416 210.278 555.427 209.403C556.45 208.517 556.961 207.381 556.961 205.994C556.961 204.96 556.706 204.028 556.194 203.199C555.683 202.358 554.956 201.699 554.012 201.222C553.069 200.733 551.944 200.489 550.637 200.489H543.666V210.716ZM543.666 195.938H549.921C551.012 195.938 551.995 195.739 552.87 195.341C553.745 194.932 554.433 194.358 554.933 193.619C555.444 192.869 555.7 191.983 555.7 190.96C555.7 189.608 555.223 188.494 554.268 187.619C553.325 186.744 551.921 186.307 550.058 186.307H543.666V195.938ZM567.656 216V189.818H573.827V216H567.656ZM570.758 186.102C569.781 186.102 568.94 185.778 568.236 185.131C567.531 184.472 567.179 183.682 567.179 182.761C567.179 181.83 567.531 181.04 568.236 180.392C568.94 179.733 569.781 179.403 570.758 179.403C571.747 179.403 572.588 179.733 573.281 180.392C573.986 181.04 574.338 181.83 574.338 182.761C574.338 183.682 573.986 184.472 573.281 185.131C572.588 185.778 571.747 186.102 570.758 186.102ZM592.286 189.818V194.591H577.234V189.818H592.286ZM580.95 183.545H587.121V208.125C587.121 208.955 587.246 209.591 587.496 210.034C587.757 210.466 588.098 210.761 588.519 210.92C588.939 211.08 589.405 211.159 589.916 211.159C590.303 211.159 590.655 211.131 590.973 211.074C591.303 211.017 591.553 210.966 591.723 210.92L592.763 215.744C592.433 215.858 591.962 215.983 591.348 216.119C590.746 216.256 590.007 216.335 589.132 216.358C587.587 216.403 586.195 216.17 584.956 215.659C583.717 215.136 582.734 214.33 582.007 213.239C581.291 212.148 580.939 210.784 580.95 209.148V183.545ZM607.625 216.511C605.012 216.511 602.767 215.938 600.892 214.79C599.029 213.642 597.591 212.057 596.58 210.034C595.58 208 595.08 205.659 595.08 203.011C595.08 200.352 595.591 198.006 596.614 195.972C597.637 193.926 599.08 192.335 600.943 191.199C602.818 190.051 605.034 189.477 607.591 189.477C609.716 189.477 611.597 189.869 613.233 190.653C614.881 191.426 616.193 192.523 617.171 193.943C618.148 195.352 618.705 197 618.841 198.886H612.943C612.705 197.625 612.137 196.574 611.239 195.733C610.353 194.881 609.165 194.455 607.676 194.455C606.415 194.455 605.307 194.795 604.353 195.477C603.398 196.148 602.654 197.114 602.12 198.375C601.597 199.636 601.335 201.148 601.335 202.909C601.335 204.693 601.597 206.227 602.12 207.511C602.642 208.784 603.375 209.767 604.318 210.46C605.273 211.142 606.392 211.483 607.676 211.483C608.585 211.483 609.398 211.312 610.114 210.972C610.841 210.619 611.449 210.114 611.938 209.455C612.426 208.795 612.762 207.994 612.943 207.051H618.841C618.693 208.903 618.148 210.545 617.205 211.977C616.262 213.398 614.978 214.511 613.353 215.318C611.728 216.114 609.818 216.511 607.625 216.511ZM634.368 216.511C631.812 216.511 629.596 215.949 627.721 214.824C625.846 213.699 624.391 212.125 623.357 210.102C622.334 208.08 621.823 205.716 621.823 203.011C621.823 200.307 622.334 197.937 623.357 195.903C624.391 193.869 625.846 192.29 627.721 191.165C629.596 190.04 631.812 189.477 634.368 189.477C636.925 189.477 639.141 190.04 641.016 191.165C642.891 192.29 644.34 193.869 645.363 195.903C646.397 197.937 646.914 200.307 646.914 203.011C646.914 205.716 646.397 208.08 645.363 210.102C644.34 212.125 642.891 213.699 641.016 214.824C639.141 215.949 636.925 216.511 634.368 216.511ZM634.402 211.568C635.789 211.568 636.948 211.187 637.88 210.426C638.812 209.653 639.505 208.619 639.959 207.324C640.425 206.028 640.658 204.585 640.658 202.994C640.658 201.392 640.425 199.943 639.959 198.648C639.505 197.341 638.812 196.301 637.88 195.528C636.948 194.756 635.789 194.369 634.402 194.369C632.982 194.369 631.8 194.756 630.857 195.528C629.925 196.301 629.226 197.341 628.76 198.648C628.306 199.943 628.079 201.392 628.079 202.994C628.079 204.585 628.306 206.028 628.76 207.324C629.226 208.619 629.925 209.653 630.857 210.426C631.8 211.187 632.982 211.568 634.402 211.568ZM651.191 216V189.818H657.362V216H651.191ZM654.293 186.102C653.316 186.102 652.475 185.778 651.771 185.131C651.066 184.472 650.714 183.682 650.714 182.761C650.714 181.83 651.066 181.04 651.771 180.392C652.475 179.733 653.316 179.403 654.293 179.403C655.282 179.403 656.123 179.733 656.816 180.392C657.521 181.04 657.873 181.83 657.873 182.761C657.873 183.682 657.521 184.472 656.816 185.131C656.123 185.778 655.282 186.102 654.293 186.102ZM668.917 200.659V216H662.747V189.818H668.644V194.267H668.951C669.554 192.801 670.514 191.636 671.832 190.773C673.161 189.909 674.804 189.477 676.758 189.477C678.565 189.477 680.139 189.864 681.48 190.636C682.832 191.409 683.877 192.528 684.616 193.994C685.366 195.46 685.735 197.239 685.724 199.33V216H679.554V200.284C679.554 198.534 679.099 197.165 678.19 196.176C677.292 195.187 676.048 194.693 674.457 194.693C673.377 194.693 672.417 194.932 671.576 195.409C670.747 195.875 670.093 196.551 669.616 197.438C669.15 198.324 668.917 199.398 668.917 200.659ZM706.739 216H699.989L712.278 181.091H720.085L732.392 216H725.642L716.318 188.25H716.045L706.739 216ZM706.96 202.312H725.369V207.392H706.96V202.312ZM754.439 190.688C754.28 189.199 753.61 188.04 752.428 187.21C751.257 186.381 749.735 185.966 747.86 185.966C746.541 185.966 745.411 186.165 744.468 186.562C743.524 186.96 742.803 187.5 742.303 188.182C741.803 188.864 741.547 189.642 741.536 190.517C741.536 191.244 741.701 191.875 742.03 192.409C742.371 192.943 742.831 193.398 743.411 193.773C743.99 194.136 744.632 194.443 745.337 194.693C746.041 194.943 746.752 195.153 747.468 195.324L750.74 196.142C752.058 196.449 753.326 196.864 754.541 197.386C755.769 197.909 756.865 198.568 757.831 199.364C758.808 200.159 759.581 201.119 760.149 202.244C760.718 203.369 761.002 204.687 761.002 206.199C761.002 208.244 760.479 210.045 759.433 211.602C758.388 213.148 756.877 214.358 754.899 215.233C752.933 216.097 750.553 216.528 747.757 216.528C745.041 216.528 742.683 216.108 740.683 215.267C738.695 214.426 737.138 213.199 736.013 211.585C734.899 209.972 734.297 208.006 734.206 205.688H740.428C740.519 206.903 740.894 207.915 741.553 208.722C742.212 209.528 743.07 210.131 744.127 210.528C745.195 210.926 746.388 211.125 747.706 211.125C749.081 211.125 750.286 210.92 751.32 210.511C752.365 210.091 753.183 209.511 753.774 208.773C754.365 208.023 754.666 207.148 754.678 206.148C754.666 205.239 754.399 204.489 753.877 203.898C753.354 203.295 752.621 202.795 751.678 202.398C750.746 201.989 749.655 201.625 748.405 201.307L744.433 200.284C741.558 199.545 739.286 198.426 737.615 196.926C735.956 195.415 735.127 193.409 735.127 190.909C735.127 188.852 735.683 187.051 736.797 185.506C737.922 183.96 739.451 182.761 741.382 181.909C743.314 181.045 745.502 180.614 747.945 180.614C750.422 180.614 752.593 181.045 754.456 181.909C756.331 182.761 757.803 183.949 758.871 185.472C759.939 186.983 760.49 188.722 760.524 190.688H754.439ZM772.003 181.091V216H765.679V181.091H772.003ZM807.772 192.869H801.397C801.215 191.824 800.88 190.898 800.391 190.091C799.903 189.273 799.295 188.58 798.567 188.011C797.84 187.443 797.011 187.017 796.079 186.733C795.158 186.438 794.164 186.29 793.096 186.29C791.198 186.29 789.516 186.767 788.05 187.722C786.584 188.665 785.437 190.051 784.607 191.881C783.778 193.699 783.363 195.92 783.363 198.545C783.363 201.216 783.778 203.466 784.607 205.295C785.448 207.114 786.596 208.489 788.05 209.42C789.516 210.341 791.192 210.801 793.079 210.801C794.124 210.801 795.102 210.665 796.011 210.392C796.931 210.108 797.755 209.693 798.482 209.148C799.221 208.602 799.84 207.932 800.34 207.136C800.852 206.341 801.204 205.432 801.397 204.409L807.772 204.443C807.533 206.102 807.016 207.659 806.221 209.114C805.437 210.568 804.408 211.852 803.136 212.966C801.863 214.068 800.374 214.932 798.67 215.557C796.965 216.17 795.073 216.477 792.994 216.477C789.925 216.477 787.187 215.767 784.778 214.347C782.369 212.926 780.471 210.875 779.084 208.193C777.698 205.511 777.005 202.295 777.005 198.545C777.005 194.784 777.704 191.568 779.102 188.898C780.499 186.216 782.403 184.165 784.812 182.744C787.221 181.324 789.948 180.614 792.994 180.614C794.937 180.614 796.744 180.886 798.414 181.432C800.084 181.977 801.573 182.778 802.88 183.835C804.187 184.881 805.261 186.165 806.102 187.688C806.954 189.199 807.511 190.926 807.772 192.869ZM823.549 181.091H831.288L841.652 206.386H842.061L852.424 181.091H860.163V216H854.095V192.017H853.771L844.123 215.898H839.589L829.941 191.966H829.618V216H823.549V181.091ZM865.817 216V189.818H871.987V216H865.817ZM868.919 186.102C867.942 186.102 867.101 185.778 866.396 185.131C865.692 184.472 865.339 183.682 865.339 182.761C865.339 181.83 865.692 181.04 866.396 180.392C867.101 179.733 867.942 179.403 868.919 179.403C869.908 179.403 870.749 179.733 871.442 180.392C872.146 181.04 872.499 181.83 872.499 182.761C872.499 183.682 872.146 184.472 871.442 185.131C870.749 185.778 869.908 186.102 868.919 186.102ZM883.543 200.659V216H877.372V189.818H883.27V194.267H883.577C884.179 192.801 885.139 191.636 886.458 190.773C887.787 189.909 889.429 189.477 891.384 189.477C893.191 189.477 894.764 189.864 896.105 190.636C897.458 191.409 898.503 192.528 899.242 193.994C899.992 195.46 900.361 197.239 900.35 199.33V216H894.179V200.284C894.179 198.534 893.725 197.165 892.816 196.176C891.918 195.187 890.673 194.693 889.083 194.693C888.003 194.693 887.043 194.932 886.202 195.409C885.372 195.875 884.719 196.551 884.242 197.438C883.776 198.324 883.543 199.398 883.543 200.659ZM917.253 216.511C914.628 216.511 912.361 215.966 910.452 214.875C908.554 213.773 907.094 212.216 906.071 210.205C905.049 208.182 904.537 205.801 904.537 203.062C904.537 200.369 905.049 198.006 906.071 195.972C907.106 193.926 908.549 192.335 910.401 191.199C912.253 190.051 914.429 189.477 916.929 189.477C918.543 189.477 920.066 189.739 921.498 190.261C922.941 190.773 924.213 191.568 925.316 192.648C926.429 193.727 927.304 195.102 927.941 196.773C928.577 198.432 928.895 200.409 928.895 202.705V204.597H907.435V200.438H922.981C922.969 199.256 922.713 198.205 922.213 197.284C921.713 196.352 921.015 195.619 920.117 195.085C919.231 194.551 918.196 194.284 917.015 194.284C915.753 194.284 914.645 194.591 913.691 195.205C912.736 195.807 911.992 196.602 911.458 197.591C910.935 198.568 910.668 199.642 910.657 200.812V204.443C910.657 205.966 910.935 207.273 911.492 208.364C912.049 209.443 912.827 210.273 913.827 210.852C914.827 211.42 915.998 211.705 917.338 211.705C918.236 211.705 919.049 211.58 919.776 211.33C920.503 211.068 921.134 210.688 921.668 210.188C922.202 209.688 922.606 209.068 922.878 208.33L928.64 208.977C928.276 210.5 927.583 211.83 926.56 212.966C925.549 214.091 924.253 214.966 922.674 215.591C921.094 216.205 919.287 216.511 917.253 216.511ZM933.155 216V189.818H939.138V194.182H939.411C939.888 192.67 940.707 191.506 941.866 190.688C943.036 189.858 944.371 189.443 945.871 189.443C946.212 189.443 946.593 189.46 947.013 189.494C947.445 189.517 947.803 189.557 948.087 189.614V195.29C947.826 195.199 947.411 195.119 946.843 195.051C946.286 194.972 945.746 194.932 945.224 194.932C944.099 194.932 943.087 195.176 942.19 195.665C941.303 196.142 940.604 196.807 940.093 197.659C939.582 198.511 939.326 199.494 939.326 200.608V216H933.155ZM962.446 216V181.091H975.537C978.218 181.091 980.468 181.557 982.287 182.489C984.116 183.42 985.497 184.727 986.429 186.409C987.372 188.08 987.843 190.028 987.843 192.256C987.843 194.494 987.366 196.437 986.412 198.085C985.468 199.722 984.076 200.989 982.235 201.886C980.395 202.773 978.133 203.216 975.451 203.216H966.128V197.966H974.599C976.167 197.966 977.451 197.75 978.451 197.318C979.451 196.875 980.19 196.233 980.667 195.392C981.156 194.54 981.4 193.494 981.4 192.256C981.4 191.017 981.156 189.96 980.667 189.085C980.179 188.199 979.434 187.528 978.434 187.074C977.434 186.608 976.145 186.375 974.565 186.375H968.77V216H962.446ZM980.48 200.182L989.122 216H982.065L973.576 200.182H980.48ZM1003.65 216.511C1001.02 216.511 998.756 215.966 996.846 214.875C994.949 213.773 993.489 212.216 992.466 210.205C991.443 208.182 990.932 205.801 990.932 203.062C990.932 200.369 991.443 198.006 992.466 195.972C993.5 193.926 994.943 192.335 996.795 191.199C998.648 190.051 1000.82 189.477 1003.32 189.477C1004.94 189.477 1006.46 189.739 1007.89 190.261C1009.34 190.773 1010.61 191.568 1011.71 192.648C1012.82 193.727 1013.7 195.102 1014.34 196.773C1014.97 198.432 1015.29 200.409 1015.29 202.705V204.597H993.829V200.438H1009.37C1009.36 199.256 1009.11 198.205 1008.61 197.284C1008.11 196.352 1007.41 195.619 1006.51 195.085C1005.62 194.551 1004.59 194.284 1003.41 194.284C1002.15 194.284 1001.04 194.591 1000.09 195.205C999.131 195.807 998.386 196.602 997.852 197.591C997.329 198.568 997.062 199.642 997.051 200.812V204.443C997.051 205.966 997.329 207.273 997.886 208.364C998.443 209.443 999.221 210.273 1000.22 210.852C1001.22 211.42 1002.39 211.705 1003.73 211.705C1004.63 211.705 1005.44 211.58 1006.17 211.33C1006.9 211.068 1007.53 210.688 1008.06 210.188C1008.6 209.688 1009 209.068 1009.27 208.33L1015.03 208.977C1014.67 210.5 1013.98 211.83 1012.95 212.966C1011.94 214.091 1010.65 214.966 1009.07 215.591C1007.49 216.205 1005.68 216.511 1003.65 216.511ZM1019.55 225.818V189.818H1025.62V194.148H1025.98C1026.29 193.511 1026.74 192.835 1027.32 192.119C1027.9 191.392 1028.69 190.773 1029.67 190.261C1030.66 189.739 1031.92 189.477 1033.46 189.477C1035.48 189.477 1037.31 189.994 1038.93 191.028C1040.57 192.051 1041.86 193.568 1042.82 195.58C1043.78 197.58 1044.27 200.034 1044.27 202.943C1044.27 205.818 1043.79 208.261 1042.85 210.273C1041.91 212.284 1040.62 213.818 1039 214.875C1037.37 215.932 1035.53 216.46 1033.48 216.46C1031.98 216.46 1030.73 216.21 1029.74 215.71C1028.75 215.21 1027.96 214.608 1027.36 213.903C1026.77 213.187 1026.31 212.511 1025.98 211.875H1025.72V225.818H1019.55ZM1025.6 202.909C1025.6 204.602 1025.84 206.085 1026.32 207.358C1026.81 208.631 1027.5 209.625 1028.41 210.341C1029.33 211.045 1030.45 211.398 1031.75 211.398C1033.12 211.398 1034.26 211.034 1035.18 210.307C1036.1 209.568 1036.79 208.562 1037.26 207.29C1037.74 206.006 1037.98 204.545 1037.98 202.909C1037.98 201.284 1037.74 199.841 1037.28 198.58C1036.81 197.318 1036.12 196.33 1035.2 195.614C1034.28 194.898 1033.13 194.54 1031.75 194.54C1030.44 194.54 1029.32 194.886 1028.4 195.58C1027.48 196.273 1026.78 197.244 1026.3 198.494C1025.83 199.744 1025.6 201.216 1025.6 202.909ZM1056.12 216.528C1054.46 216.528 1052.97 216.233 1051.64 215.642C1050.32 215.04 1049.28 214.153 1048.5 212.983C1047.74 211.812 1047.36 210.369 1047.36 208.653C1047.36 207.176 1047.64 205.955 1048.18 204.989C1048.73 204.023 1049.47 203.25 1050.41 202.67C1051.36 202.091 1052.42 201.653 1053.6 201.358C1054.79 201.051 1056.03 200.83 1057.3 200.693C1058.83 200.534 1060.08 200.392 1061.03 200.267C1061.99 200.131 1062.68 199.926 1063.11 199.653C1063.56 199.369 1063.78 198.932 1063.78 198.341V198.239C1063.78 196.955 1063.4 195.96 1062.64 195.256C1061.87 194.551 1060.78 194.199 1059.35 194.199C1057.83 194.199 1056.64 194.528 1055.75 195.188C1054.87 195.847 1054.28 196.625 1053.98 197.523L1048.21 196.705C1048.67 195.114 1049.42 193.784 1050.46 192.716C1051.51 191.636 1052.79 190.83 1054.3 190.295C1055.81 189.75 1057.48 189.477 1059.31 189.477C1060.57 189.477 1061.83 189.625 1063.08 189.92C1064.33 190.216 1065.47 190.705 1066.5 191.386C1067.54 192.057 1068.37 192.972 1068.99 194.131C1069.63 195.29 1069.95 196.739 1069.95 198.477V216H1064.02V212.403H1063.81C1063.44 213.131 1062.91 213.812 1062.23 214.449C1061.56 215.074 1060.71 215.58 1059.69 215.966C1058.68 216.341 1057.49 216.528 1056.12 216.528ZM1057.73 211.994C1058.96 211.994 1060.04 211.75 1060.95 211.261C1061.86 210.761 1062.56 210.102 1063.04 209.284C1063.54 208.466 1063.79 207.574 1063.79 206.608V203.523C1063.6 203.682 1063.27 203.83 1062.81 203.966C1062.35 204.102 1061.84 204.222 1061.27 204.324C1060.7 204.426 1060.14 204.517 1059.58 204.597C1059.03 204.676 1058.54 204.744 1058.14 204.801C1057.21 204.926 1056.39 205.131 1055.66 205.415C1054.94 205.699 1054.36 206.097 1053.94 206.608C1053.52 207.108 1053.31 207.756 1053.31 208.551C1053.31 209.688 1053.73 210.545 1054.56 211.125C1055.39 211.705 1056.44 211.994 1057.73 211.994ZM1075.19 216V189.818H1081.36V216H1075.19ZM1078.29 186.102C1077.32 186.102 1076.48 185.778 1075.77 185.131C1075.07 184.472 1074.72 183.682 1074.72 182.761C1074.72 181.83 1075.07 181.04 1075.77 180.392C1076.48 179.733 1077.32 179.403 1078.29 179.403C1079.28 179.403 1080.12 179.733 1080.82 180.392C1081.52 181.04 1081.87 181.83 1081.87 182.761C1081.87 183.682 1081.52 184.472 1080.82 185.131C1080.12 185.778 1079.28 186.102 1078.29 186.102ZM1086.75 216V189.818H1092.73V194.182H1093C1093.48 192.67 1094.3 191.506 1095.46 190.688C1096.63 189.858 1097.96 189.443 1099.46 189.443C1099.8 189.443 1100.19 189.46 1100.61 189.494C1101.04 189.517 1101.4 189.557 1101.68 189.614V195.29C1101.42 195.199 1101 195.119 1100.44 195.051C1099.88 194.972 1099.34 194.932 1098.82 194.932C1097.69 194.932 1096.68 195.176 1095.78 195.665C1094.9 196.142 1094.2 196.807 1093.69 197.659C1093.17 198.511 1092.92 199.494 1092.92 200.608V216H1086.75ZM645.192 262.688C645.033 261.199 644.363 260.04 643.181 259.21C642.01 258.381 640.488 257.966 638.613 257.966C637.295 257.966 636.164 258.165 635.221 258.562C634.277 258.96 633.556 259.5 633.056 260.182C632.556 260.864 632.3 261.642 632.289 262.517C632.289 263.244 632.454 263.875 632.783 264.409C633.124 264.943 633.584 265.398 634.164 265.773C634.743 266.136 635.385 266.443 636.09 266.693C636.795 266.943 637.505 267.153 638.221 267.324L641.493 268.142C642.812 268.449 644.079 268.864 645.295 269.386C646.522 269.909 647.618 270.568 648.584 271.364C649.562 272.159 650.334 273.119 650.902 274.244C651.471 275.369 651.755 276.687 651.755 278.199C651.755 280.244 651.232 282.045 650.187 283.602C649.141 285.148 647.63 286.358 645.652 287.233C643.687 288.097 641.306 288.528 638.51 288.528C635.795 288.528 633.437 288.108 631.437 287.267C629.448 286.426 627.891 285.199 626.766 283.585C625.652 281.972 625.05 280.006 624.959 277.688H631.181C631.272 278.903 631.647 279.915 632.306 280.722C632.965 281.528 633.823 282.131 634.88 282.528C635.948 282.926 637.141 283.125 638.459 283.125C639.834 283.125 641.039 282.92 642.073 282.511C643.118 282.091 643.937 281.511 644.527 280.773C645.118 280.023 645.42 279.148 645.431 278.148C645.42 277.239 645.152 276.489 644.63 275.898C644.107 275.295 643.374 274.795 642.431 274.398C641.499 273.989 640.408 273.625 639.158 273.307L635.187 272.284C632.312 271.545 630.039 270.426 628.368 268.926C626.709 267.415 625.88 265.409 625.88 262.909C625.88 260.852 626.437 259.051 627.55 257.506C628.675 255.96 630.204 254.761 632.135 253.909C634.067 253.045 636.255 252.614 638.698 252.614C641.175 252.614 643.346 253.045 645.209 253.909C647.084 254.761 648.556 255.949 649.624 257.472C650.692 258.983 651.243 260.722 651.277 262.688H645.192ZM667.751 288.511C665.126 288.511 662.859 287.966 660.95 286.875C659.052 285.773 657.592 284.216 656.569 282.205C655.546 280.182 655.035 277.801 655.035 275.062C655.035 272.369 655.546 270.006 656.569 267.972C657.603 265.926 659.046 264.335 660.898 263.199C662.751 262.051 664.927 261.477 667.427 261.477C669.041 261.477 670.563 261.739 671.995 262.261C673.438 262.773 674.711 263.568 675.813 264.648C676.927 265.727 677.802 267.102 678.438 268.773C679.075 270.432 679.393 272.409 679.393 274.705V276.597H657.933V272.438H673.478C673.467 271.256 673.211 270.205 672.711 269.284C672.211 268.352 671.512 267.619 670.614 267.085C669.728 266.551 668.694 266.284 667.512 266.284C666.251 266.284 665.143 266.591 664.188 267.205C663.234 267.807 662.489 268.602 661.955 269.591C661.433 270.568 661.166 271.642 661.154 272.812V276.443C661.154 277.966 661.433 279.273 661.989 280.364C662.546 281.443 663.325 282.273 664.325 282.852C665.325 283.42 666.495 283.705 667.836 283.705C668.734 283.705 669.546 283.58 670.273 283.33C671.001 283.068 671.631 282.688 672.166 282.188C672.7 281.688 673.103 281.068 673.376 280.33L679.137 280.977C678.773 282.5 678.08 283.83 677.058 284.966C676.046 286.091 674.751 286.966 673.171 287.591C671.592 288.205 669.785 288.511 667.751 288.511ZM683.653 288V261.818H689.636V266.182H689.909C690.386 264.67 691.204 263.506 692.363 262.688C693.534 261.858 694.869 261.443 696.369 261.443C696.71 261.443 697.09 261.46 697.511 261.494C697.943 261.517 698.301 261.557 698.585 261.614V267.29C698.323 267.199 697.909 267.119 697.34 267.051C696.784 266.972 696.244 266.932 695.721 266.932C694.596 266.932 693.585 267.176 692.687 267.665C691.801 268.142 691.102 268.807 690.59 269.659C690.079 270.511 689.823 271.494 689.823 272.608V288H683.653ZM725.907 261.818L716.584 288H709.765L700.442 261.818H707.021L713.038 281.267H713.311L719.345 261.818H725.907ZM729.217 288V261.818H735.388V288H729.217ZM732.32 258.102C731.342 258.102 730.501 257.778 729.797 257.131C729.092 256.472 728.74 255.682 728.74 254.761C728.74 253.83 729.092 253.04 729.797 252.392C730.501 251.733 731.342 251.403 732.32 251.403C733.308 251.403 734.149 251.733 734.842 252.392C735.547 253.04 735.899 253.83 735.899 254.761C735.899 255.682 735.547 256.472 734.842 257.131C734.149 257.778 733.308 258.102 732.32 258.102ZM752.193 288.511C749.58 288.511 747.335 287.938 745.46 286.79C743.597 285.642 742.159 284.057 741.148 282.034C740.148 280 739.648 277.659 739.648 275.011C739.648 272.352 740.159 270.006 741.182 267.972C742.205 265.926 743.648 264.335 745.512 263.199C747.387 262.051 749.602 261.477 752.159 261.477C754.284 261.477 756.165 261.869 757.801 262.653C759.449 263.426 760.762 264.523 761.739 265.943C762.716 267.352 763.273 269 763.409 270.886H757.512C757.273 269.625 756.705 268.574 755.807 267.733C754.921 266.881 753.733 266.455 752.245 266.455C750.983 266.455 749.875 266.795 748.921 267.477C747.966 268.148 747.222 269.114 746.688 270.375C746.165 271.636 745.904 273.148 745.904 274.909C745.904 276.693 746.165 278.227 746.688 279.511C747.21 280.784 747.943 281.767 748.887 282.46C749.841 283.142 750.96 283.483 752.245 283.483C753.154 283.483 753.966 283.312 754.682 282.972C755.409 282.619 756.017 282.114 756.506 281.455C756.995 280.795 757.33 279.994 757.512 279.051H763.409C763.262 280.903 762.716 282.545 761.773 283.977C760.83 285.398 759.546 286.511 757.921 287.318C756.296 288.114 754.387 288.511 752.193 288.511ZM779.107 288.511C776.482 288.511 774.215 287.966 772.306 286.875C770.408 285.773 768.948 284.216 767.925 282.205C766.902 280.182 766.391 277.801 766.391 275.062C766.391 272.369 766.902 270.006 767.925 267.972C768.959 265.926 770.402 264.335 772.255 263.199C774.107 262.051 776.283 261.477 778.783 261.477C780.397 261.477 781.92 261.739 783.351 262.261C784.795 262.773 786.067 263.568 787.17 264.648C788.283 265.727 789.158 267.102 789.795 268.773C790.431 270.432 790.749 272.409 790.749 274.705V276.597H769.289V272.438H784.834C784.823 271.256 784.567 270.205 784.067 269.284C783.567 268.352 782.868 267.619 781.971 267.085C781.084 266.551 780.05 266.284 778.868 266.284C777.607 266.284 776.499 266.591 775.545 267.205C774.59 267.807 773.846 268.602 773.312 269.591C772.789 270.568 772.522 271.642 772.51 272.812V276.443C772.51 277.966 772.789 279.273 773.346 280.364C773.902 281.443 774.681 282.273 775.681 282.852C776.681 283.42 777.851 283.705 779.192 283.705C780.09 283.705 780.902 283.58 781.63 283.33C782.357 283.068 782.988 282.688 783.522 282.188C784.056 281.688 784.459 281.068 784.732 280.33L790.493 280.977C790.13 282.5 789.437 283.83 788.414 284.966C787.402 286.091 786.107 286.966 784.527 287.591C782.948 288.205 781.141 288.511 779.107 288.511ZM815.702 268.739L810.077 269.352C809.918 268.784 809.64 268.25 809.242 267.75C808.856 267.25 808.333 266.847 807.674 266.54C807.015 266.233 806.208 266.08 805.254 266.08C803.969 266.08 802.89 266.358 802.015 266.915C801.151 267.472 800.725 268.193 800.736 269.08C800.725 269.841 801.004 270.46 801.572 270.938C802.151 271.415 803.106 271.807 804.435 272.114L808.901 273.068C811.379 273.602 813.219 274.449 814.424 275.608C815.64 276.767 816.254 278.284 816.265 280.159C816.254 281.807 815.771 283.261 814.816 284.523C813.873 285.773 812.56 286.75 810.879 287.455C809.197 288.159 807.265 288.511 805.083 288.511C801.879 288.511 799.299 287.841 797.344 286.5C795.39 285.148 794.225 283.267 793.85 280.858L799.867 280.278C800.14 281.46 800.719 282.352 801.606 282.955C802.492 283.557 803.646 283.858 805.066 283.858C806.532 283.858 807.708 283.557 808.594 282.955C809.492 282.352 809.941 281.608 809.941 280.722C809.941 279.972 809.651 279.352 809.072 278.864C808.504 278.375 807.617 278 806.413 277.739L801.947 276.801C799.435 276.278 797.577 275.398 796.373 274.159C795.168 272.909 794.572 271.33 794.583 269.42C794.572 267.807 795.009 266.409 795.896 265.227C796.793 264.034 798.038 263.114 799.629 262.466C801.231 261.807 803.077 261.477 805.168 261.477C808.236 261.477 810.651 262.131 812.413 263.438C814.185 264.744 815.282 266.511 815.702 268.739Z" fill="url(#paint3_linear_340_1736)"/>

<g filter="url(#filter0_d_340_1736)">

</g>
</g>
<defs>
<filter id="filter0_d_340_1736" x="561" y="450" width="318" height="64" filterUnits="userSpaceOnUse" color-interpolation-filters="sRGB">
<feFlood flood-opacity="0" result="BackgroundImageFix"/>
<feColorMatrix in="SourceAlpha" type="matrix" values="0 0 0 0 0 0 0 0 0 0 0 0 0 0 0 0 0 0 127 0" result="hardAlpha"/>
<feOffset dy="1"/>
<feGaussianBlur stdDeviation="1"/>
<feColorMatrix type="matrix" values="0 0 0 0 0.0627451 0 0 0 0 0.0941176 0 0 0 0 0.156863 0 0 0 0.05 0"/>
<feBlend mode="normal" in2="BackgroundImageFix" result="effect1_dropShadow_340_1736"/>
<feBlend mode="normal" in="SourceGraphic" in2="effect1_dropShadow_340_1736" result="shape"/>
</filter>

<linearGradient id="paint1_linear_340_1736" x1="718" y1="214" x2="730" y2="669" gradientUnits="userSpaceOnUse">
<stop stop-color="#2558B0"/>
<stop offset="1" stop-color="#081433"/>
</linearGradient>
<linearGradient id="paint2_linear_340_1736" x1="718" y1="424.853" x2="730" y2="-30.1467" gradientUnits="userSpaceOnUse">
<stop stop-color="#2558B0"/>
<stop offset="1" stop-color="#081433"/>
</linearGradient>

<clipPath id="clip0_340_1736">
<rect width="1440" height="660" fill="white"/>
</clipPath>
</defs>
</svg>
